<?xml version="1.0" standalone="no"?>
 <!DOCTYPE svg PUBLIC "-//W3C//DTD SVG 1.1//EN" 
 "http://www.w3.org/Graphics/SVG/1.1/DTD/svg11.dtd"> 
<svg xmlns="http://www.w3.org/2000/svg" version="1.1" 
    width="29.7002cm" height="21.0007cm" viewBox="0 0 116930 82680 ">
<title>SVG Picture created as KiCad.svg date 2020/04/19 12:09:22 </title>
  <desc>Picture generated by Eeschema-SVG </desc>
<g style="fill:#000000; fill-opacity:1;stroke:#000000; stroke-opacity:1;
stroke-linecap:round; stroke-linejoin:round; "
 transform="translate(0 0) scale(1 1)">
</g>
<g style="fill:#000000; fill-opacity:0.0; 
stroke:#000000; stroke-width:-10; stroke-opacity:1; 
stroke-linecap:round; stroke-linejoin:round;">
</g>
<g style="fill:#840000; fill-opacity:0.0; 
stroke:#840000; stroke-width:-10; stroke-opacity:1; 
stroke-linecap:round; stroke-linejoin:round;">
</g>
<g style="fill:#840000; fill-opacity:0.0; 
stroke:#840000; stroke-width:100; stroke-opacity:1; 
stroke-linecap:round; stroke-linejoin:round;">
</g>
<g style="fill:#840000; fill-opacity:0.0; 
stroke:#840000; stroke-width:60; stroke-opacity:1; 
stroke-linecap:round; stroke-linejoin:round;">
<rect x="69690" y="65360" width="42520" height="12600" rx="0" />
</g>
<g style="fill:#840000; fill-opacity:0.0; 
stroke:#840000; stroke-width:100; stroke-opacity:1; 
stroke-linecap:round; stroke-linejoin:round;">
</g>
<g style="fill:#840000; fill-opacity:0.0; 
stroke:#840000; stroke-width:60; stroke-opacity:1; 
stroke-linecap:round; stroke-linejoin:round;">
<rect x="3940" y="3940" width="109050" height="74800" rx="0" />
</g>
<g style="fill:#840000; fill-opacity:0.0; 
stroke:#840000; stroke-width:100; stroke-opacity:1; 
stroke-linecap:round; stroke-linejoin:round;">
</g>
<g style="fill:#840000; fill-opacity:0.0; 
stroke:#840000; stroke-width:60; stroke-opacity:1; 
stroke-linecap:round; stroke-linejoin:round;">
<rect x="4720" y="4720" width="107490" height="73240" rx="0" />
</g>
<g style="fill:#840000; fill-opacity:0.0; 
stroke:#840000; stroke-width:100; stroke-opacity:1; 
stroke-linecap:round; stroke-linejoin:round;">
</g>
<g style="fill:#840000; fill-opacity:0.0; 
stroke:#840000; stroke-width:60; stroke-opacity:1; 
stroke-linecap:round; stroke-linejoin:round;">
<path d="M23620 4720
L23620 3940
" />
</g>
<g style="fill:#840000; fill-opacity:0.0; 
stroke:#840000; stroke-width:100; stroke-opacity:1; 
stroke-linecap:round; stroke-linejoin:round;">
</g>
<g style="fill:#840000; fill-opacity:0.0; 
stroke:#840000; stroke-width:60; stroke-opacity:1; 
stroke-linecap:round; stroke-linejoin:round;">
<path d="M43310 4720
L43310 3940
" />
</g>
<g style="fill:#840000; fill-opacity:0.0; 
stroke:#840000; stroke-width:100; stroke-opacity:1; 
stroke-linecap:round; stroke-linejoin:round;">
</g>
<g style="fill:#840000; fill-opacity:0.0; 
stroke:#840000; stroke-width:60; stroke-opacity:1; 
stroke-linecap:round; stroke-linejoin:round;">
<path d="M62990 4720
L62990 3940
" />
</g>
<g style="fill:#840000; fill-opacity:0.0; 
stroke:#840000; stroke-width:100; stroke-opacity:1; 
stroke-linecap:round; stroke-linejoin:round;">
</g>
<g style="fill:#840000; fill-opacity:0.0; 
stroke:#840000; stroke-width:60; stroke-opacity:1; 
stroke-linecap:round; stroke-linejoin:round;">
<path d="M82680 4720
L82680 3940
" />
</g>
<g style="fill:#840000; fill-opacity:0.0; 
stroke:#840000; stroke-width:100; stroke-opacity:1; 
stroke-linecap:round; stroke-linejoin:round;">
</g>
<g style="fill:#840000; fill-opacity:0.0; 
stroke:#840000; stroke-width:60; stroke-opacity:1; 
stroke-linecap:round; stroke-linejoin:round;">
<path d="M102360 4720
L102360 3940
" />
</g>
<g style="fill:#840000; fill-opacity:0.0; 
stroke:#840000; stroke-width:100; stroke-opacity:1; 
stroke-linecap:round; stroke-linejoin:round;">
</g>
<g style="fill:#840000; fill-opacity:0.0; 
stroke:#840000; stroke-width:60; stroke-opacity:1; 
stroke-linecap:round; stroke-linejoin:round;">
<path d="M14190 4560
L13900 4560
" />
<path d="M14050 4560
L14050 4050
L14000 4120
L13950 4170
L13900 4190
" />
</g>
<g style="fill:#840000; fill-opacity:0.0; 
stroke:#840000; stroke-width:100; stroke-opacity:1; 
stroke-linecap:round; stroke-linejoin:round;">
</g>
<g style="fill:#840000; fill-opacity:0.0; 
stroke:#840000; stroke-width:60; stroke-opacity:1; 
stroke-linecap:round; stroke-linejoin:round;">
<path d="M33580 4090
L33610 4070
L33660 4050
L33780 4050
L33830 4070
L33850 4090
L33870 4140
L33870 4190
L33850 4260
L33560 4560
L33870 4560
" />
</g>
<g style="fill:#840000; fill-opacity:0.0; 
stroke:#840000; stroke-width:100; stroke-opacity:1; 
stroke-linecap:round; stroke-linejoin:round;">
</g>
<g style="fill:#840000; fill-opacity:0.0; 
stroke:#840000; stroke-width:60; stroke-opacity:1; 
stroke-linecap:round; stroke-linejoin:round;">
<path d="M53250 4050
L53560 4050
L53390 4240
L53470 4240
L53520 4260
L53540 4290
L53560 4340
L53560 4460
L53540 4510
L53520 4530
L53470 4560
L53320 4560
L53270 4530
L53250 4510
" />
</g>
<g style="fill:#840000; fill-opacity:0.0; 
stroke:#840000; stroke-width:100; stroke-opacity:1; 
stroke-linecap:round; stroke-linejoin:round;">
</g>
<g style="fill:#840000; fill-opacity:0.0; 
stroke:#840000; stroke-width:60; stroke-opacity:1; 
stroke-linecap:round; stroke-linejoin:round;">
<path d="M73200 4220
L73200 4560
" />
<path d="M73070 4020
L72950 4390
L73270 4390
" />
</g>
<g style="fill:#840000; fill-opacity:0.0; 
stroke:#840000; stroke-width:100; stroke-opacity:1; 
stroke-linecap:round; stroke-linejoin:round;">
</g>
<g style="fill:#840000; fill-opacity:0.0; 
stroke:#840000; stroke-width:60; stroke-opacity:1; 
stroke-linecap:round; stroke-linejoin:round;">
<path d="M92910 4050
L92670 4050
L92640 4290
L92670 4260
L92720 4240
L92840 4240
L92890 4260
L92910 4290
L92930 4340
L92930 4460
L92910 4510
L92890 4530
L92840 4560
L92720 4560
L92670 4530
L92640 4510
" />
</g>
<g style="fill:#840000; fill-opacity:0.0; 
stroke:#840000; stroke-width:100; stroke-opacity:1; 
stroke-linecap:round; stroke-linejoin:round;">
</g>
<g style="fill:#840000; fill-opacity:0.0; 
stroke:#840000; stroke-width:60; stroke-opacity:1; 
stroke-linecap:round; stroke-linejoin:round;">
<path d="M112570 4050
L112470 4050
L112420 4070
L112400 4090
L112350 4170
L112320 4260
L112320 4460
L112350 4510
L112370 4530
L112420 4560
L112520 4560
L112570 4530
L112590 4510
L112610 4460
L112610 4340
L112590 4290
L112570 4260
L112520 4240
L112420 4240
L112370 4260
L112350 4290
L112320 4340
" />
</g>
<g style="fill:#840000; fill-opacity:0.0; 
stroke:#840000; stroke-width:100; stroke-opacity:1; 
stroke-linecap:round; stroke-linejoin:round;">
</g>
<g style="fill:#840000; fill-opacity:0.0; 
stroke:#840000; stroke-width:60; stroke-opacity:1; 
stroke-linecap:round; stroke-linejoin:round;">
<path d="M23620 77960
L23620 78740
" />
</g>
<g style="fill:#840000; fill-opacity:0.0; 
stroke:#840000; stroke-width:100; stroke-opacity:1; 
stroke-linecap:round; stroke-linejoin:round;">
</g>
<g style="fill:#840000; fill-opacity:0.0; 
stroke:#840000; stroke-width:60; stroke-opacity:1; 
stroke-linecap:round; stroke-linejoin:round;">
<path d="M43310 77960
L43310 78740
" />
</g>
<g style="fill:#840000; fill-opacity:0.0; 
stroke:#840000; stroke-width:100; stroke-opacity:1; 
stroke-linecap:round; stroke-linejoin:round;">
</g>
<g style="fill:#840000; fill-opacity:0.0; 
stroke:#840000; stroke-width:60; stroke-opacity:1; 
stroke-linecap:round; stroke-linejoin:round;">
<path d="M62990 77960
L62990 78740
" />
</g>
<g style="fill:#840000; fill-opacity:0.0; 
stroke:#840000; stroke-width:100; stroke-opacity:1; 
stroke-linecap:round; stroke-linejoin:round;">
</g>
<g style="fill:#840000; fill-opacity:0.0; 
stroke:#840000; stroke-width:60; stroke-opacity:1; 
stroke-linecap:round; stroke-linejoin:round;">
<path d="M82680 77960
L82680 78740
" />
</g>
<g style="fill:#840000; fill-opacity:0.0; 
stroke:#840000; stroke-width:100; stroke-opacity:1; 
stroke-linecap:round; stroke-linejoin:round;">
</g>
<g style="fill:#840000; fill-opacity:0.0; 
stroke:#840000; stroke-width:60; stroke-opacity:1; 
stroke-linecap:round; stroke-linejoin:round;">
<path d="M102360 77960
L102360 78740
" />
</g>
<g style="fill:#840000; fill-opacity:0.0; 
stroke:#840000; stroke-width:100; stroke-opacity:1; 
stroke-linecap:round; stroke-linejoin:round;">
</g>
<g style="fill:#840000; fill-opacity:0.0; 
stroke:#840000; stroke-width:60; stroke-opacity:1; 
stroke-linecap:round; stroke-linejoin:round;">
<path d="M14190 78580
L13900 78580
" />
<path d="M14050 78580
L14050 78070
L14000 78140
L13950 78190
L13900 78210
" />
</g>
<g style="fill:#840000; fill-opacity:0.0; 
stroke:#840000; stroke-width:100; stroke-opacity:1; 
stroke-linecap:round; stroke-linejoin:round;">
</g>
<g style="fill:#840000; fill-opacity:0.0; 
stroke:#840000; stroke-width:60; stroke-opacity:1; 
stroke-linecap:round; stroke-linejoin:round;">
<path d="M33580 78110
L33610 78090
L33660 78070
L33780 78070
L33830 78090
L33850 78110
L33870 78160
L33870 78210
L33850 78280
L33560 78580
L33870 78580
" />
</g>
<g style="fill:#840000; fill-opacity:0.0; 
stroke:#840000; stroke-width:100; stroke-opacity:1; 
stroke-linecap:round; stroke-linejoin:round;">
</g>
<g style="fill:#840000; fill-opacity:0.0; 
stroke:#840000; stroke-width:60; stroke-opacity:1; 
stroke-linecap:round; stroke-linejoin:round;">
<path d="M53250 78070
L53560 78070
L53390 78260
L53470 78260
L53520 78280
L53540 78310
L53560 78360
L53560 78480
L53540 78530
L53520 78550
L53470 78580
L53320 78580
L53270 78550
L53250 78530
" />
</g>
<g style="fill:#840000; fill-opacity:0.0; 
stroke:#840000; stroke-width:100; stroke-opacity:1; 
stroke-linecap:round; stroke-linejoin:round;">
</g>
<g style="fill:#840000; fill-opacity:0.0; 
stroke:#840000; stroke-width:60; stroke-opacity:1; 
stroke-linecap:round; stroke-linejoin:round;">
<path d="M73200 78240
L73200 78580
" />
<path d="M73070 78040
L72950 78410
L73270 78410
" />
</g>
<g style="fill:#840000; fill-opacity:0.0; 
stroke:#840000; stroke-width:100; stroke-opacity:1; 
stroke-linecap:round; stroke-linejoin:round;">
</g>
<g style="fill:#840000; fill-opacity:0.0; 
stroke:#840000; stroke-width:60; stroke-opacity:1; 
stroke-linecap:round; stroke-linejoin:round;">
<path d="M92910 78070
L92670 78070
L92640 78310
L92670 78280
L92720 78260
L92840 78260
L92890 78280
L92910 78310
L92930 78360
L92930 78480
L92910 78530
L92890 78550
L92840 78580
L92720 78580
L92670 78550
L92640 78530
" />
</g>
<g style="fill:#840000; fill-opacity:0.0; 
stroke:#840000; stroke-width:100; stroke-opacity:1; 
stroke-linecap:round; stroke-linejoin:round;">
</g>
<g style="fill:#840000; fill-opacity:0.0; 
stroke:#840000; stroke-width:60; stroke-opacity:1; 
stroke-linecap:round; stroke-linejoin:round;">
<path d="M112570 78070
L112470 78070
L112420 78090
L112400 78110
L112350 78190
L112320 78280
L112320 78480
L112350 78530
L112370 78550
L112420 78580
L112520 78580
L112570 78550
L112590 78530
L112610 78480
L112610 78360
L112590 78310
L112570 78280
L112520 78260
L112420 78260
L112370 78280
L112350 78310
L112320 78360
" />
</g>
<g style="fill:#840000; fill-opacity:0.0; 
stroke:#840000; stroke-width:100; stroke-opacity:1; 
stroke-linecap:round; stroke-linejoin:round;">
</g>
<g style="fill:#840000; fill-opacity:0.0; 
stroke:#840000; stroke-width:60; stroke-opacity:1; 
stroke-linecap:round; stroke-linejoin:round;">
<path d="M3940 23620
L4720 23620
" />
</g>
<g style="fill:#840000; fill-opacity:0.0; 
stroke:#840000; stroke-width:100; stroke-opacity:1; 
stroke-linecap:round; stroke-linejoin:round;">
</g>
<g style="fill:#840000; fill-opacity:0.0; 
stroke:#840000; stroke-width:60; stroke-opacity:1; 
stroke-linecap:round; stroke-linejoin:round;">
<path d="M3940 43310
L4720 43310
" />
</g>
<g style="fill:#840000; fill-opacity:0.0; 
stroke:#840000; stroke-width:100; stroke-opacity:1; 
stroke-linecap:round; stroke-linejoin:round;">
</g>
<g style="fill:#840000; fill-opacity:0.0; 
stroke:#840000; stroke-width:60; stroke-opacity:1; 
stroke-linecap:round; stroke-linejoin:round;">
<path d="M3940 62990
L4720 62990
" />
</g>
<g style="fill:#840000; fill-opacity:0.0; 
stroke:#840000; stroke-width:100; stroke-opacity:1; 
stroke-linecap:round; stroke-linejoin:round;">
</g>
<g style="fill:#840000; fill-opacity:0.0; 
stroke:#840000; stroke-width:60; stroke-opacity:1; 
stroke-linecap:round; stroke-linejoin:round;">
<path d="M4200 13860
L4450 13860
" />
<path d="M4160 14010
L4330 13500
L4500 14010
" />
</g>
<g style="fill:#840000; fill-opacity:0.0; 
stroke:#840000; stroke-width:100; stroke-opacity:1; 
stroke-linecap:round; stroke-linejoin:round;">
</g>
<g style="fill:#840000; fill-opacity:0.0; 
stroke:#840000; stroke-width:60; stroke-opacity:1; 
stroke-linecap:round; stroke-linejoin:round;">
<path d="M4360 33420
L4430 33440
L4460 33470
L4480 33520
L4480 33590
L4460 33640
L4430 33660
L4390 33690
L4190 33690
L4190 33180
L4360 33180
L4410 33200
L4430 33220
L4460 33270
L4460 33320
L4430 33370
L4410 33390
L4360 33420
L4190 33420
" />
</g>
<g style="fill:#840000; fill-opacity:0.0; 
stroke:#840000; stroke-width:100; stroke-opacity:1; 
stroke-linecap:round; stroke-linejoin:round;">
</g>
<g style="fill:#840000; fill-opacity:0.0; 
stroke:#840000; stroke-width:60; stroke-opacity:1; 
stroke-linecap:round; stroke-linejoin:round;">
<path d="M4480 53330
L4460 53350
L4390 53380
L4340 53380
L4260 53350
L4220 53300
L4190 53250
L4170 53160
L4170 53080
L4190 52990
L4220 52940
L4260 52890
L4340 52870
L4390 52870
L4460 52890
L4480 52910
" />
</g>
<g style="fill:#840000; fill-opacity:0.0; 
stroke:#840000; stroke-width:100; stroke-opacity:1; 
stroke-linecap:round; stroke-linejoin:round;">
</g>
<g style="fill:#840000; fill-opacity:0.0; 
stroke:#840000; stroke-width:60; stroke-opacity:1; 
stroke-linecap:round; stroke-linejoin:round;">
<path d="M4190 73060
L4190 72550
L4310 72550
L4390 72570
L4430 72620
L4460 72670
L4480 72760
L4480 72840
L4460 72930
L4430 72980
L4390 73030
L4310 73060
L4190 73060
" />
</g>
<g style="fill:#840000; fill-opacity:0.0; 
stroke:#840000; stroke-width:100; stroke-opacity:1; 
stroke-linecap:round; stroke-linejoin:round;">
</g>
<g style="fill:#840000; fill-opacity:0.0; 
stroke:#840000; stroke-width:60; stroke-opacity:1; 
stroke-linecap:round; stroke-linejoin:round;">
<path d="M112990 23620
L112210 23620
" />
</g>
<g style="fill:#840000; fill-opacity:0.0; 
stroke:#840000; stroke-width:100; stroke-opacity:1; 
stroke-linecap:round; stroke-linejoin:round;">
</g>
<g style="fill:#840000; fill-opacity:0.0; 
stroke:#840000; stroke-width:60; stroke-opacity:1; 
stroke-linecap:round; stroke-linejoin:round;">
<path d="M112990 43310
L112210 43310
" />
</g>
<g style="fill:#840000; fill-opacity:0.0; 
stroke:#840000; stroke-width:100; stroke-opacity:1; 
stroke-linecap:round; stroke-linejoin:round;">
</g>
<g style="fill:#840000; fill-opacity:0.0; 
stroke:#840000; stroke-width:60; stroke-opacity:1; 
stroke-linecap:round; stroke-linejoin:round;">
<path d="M112990 62990
L112210 62990
" />
</g>
<g style="fill:#840000; fill-opacity:0.0; 
stroke:#840000; stroke-width:100; stroke-opacity:1; 
stroke-linecap:round; stroke-linejoin:round;">
</g>
<g style="fill:#840000; fill-opacity:0.0; 
stroke:#840000; stroke-width:60; stroke-opacity:1; 
stroke-linecap:round; stroke-linejoin:round;">
<path d="M112470 13860
L112720 13860
" />
<path d="M112430 14010
L112600 13500
L112770 14010
" />
</g>
<g style="fill:#840000; fill-opacity:0.0; 
stroke:#840000; stroke-width:100; stroke-opacity:1; 
stroke-linecap:round; stroke-linejoin:round;">
</g>
<g style="fill:#840000; fill-opacity:0.0; 
stroke:#840000; stroke-width:60; stroke-opacity:1; 
stroke-linecap:round; stroke-linejoin:round;">
<path d="M112630 33420
L112700 33440
L112730 33470
L112750 33520
L112750 33590
L112730 33640
L112700 33660
L112660 33690
L112460 33690
L112460 33180
L112630 33180
L112680 33200
L112700 33220
L112730 33270
L112730 33320
L112700 33370
L112680 33390
L112630 33420
L112460 33420
" />
</g>
<g style="fill:#840000; fill-opacity:0.0; 
stroke:#840000; stroke-width:100; stroke-opacity:1; 
stroke-linecap:round; stroke-linejoin:round;">
</g>
<g style="fill:#840000; fill-opacity:0.0; 
stroke:#840000; stroke-width:60; stroke-opacity:1; 
stroke-linecap:round; stroke-linejoin:round;">
<path d="M112750 53330
L112730 53350
L112660 53380
L112610 53380
L112530 53350
L112490 53300
L112460 53250
L112440 53160
L112440 53080
L112460 52990
L112490 52940
L112530 52890
L112610 52870
L112660 52870
L112730 52890
L112750 52910
" />
</g>
<g style="fill:#840000; fill-opacity:0.0; 
stroke:#840000; stroke-width:100; stroke-opacity:1; 
stroke-linecap:round; stroke-linejoin:round;">
</g>
<g style="fill:#840000; fill-opacity:0.0; 
stroke:#840000; stroke-width:60; stroke-opacity:1; 
stroke-linecap:round; stroke-linejoin:round;">
<path d="M112460 73060
L112460 72550
L112580 72550
L112660 72570
L112700 72620
L112730 72670
L112750 72760
L112750 72840
L112730 72930
L112700 72980
L112660 73030
L112580 73060
L112460 73060
" />
</g>
<g style="fill:#840000; fill-opacity:0.0; 
stroke:#840000; stroke-width:100; stroke-opacity:1; 
stroke-linecap:round; stroke-linejoin:round;">
</g>
<g style="fill:#840000; fill-opacity:0.0; 
stroke:#840000; stroke-width:60; stroke-opacity:1; 
stroke-linecap:round; stroke-linejoin:round;">
<path d="M78910 76290
L78910 75700
L79050 75700
L79130 75730
L79190 75790
L79210 75840
L79240 75950
L79240 76040
L79210 76150
L79190 76210
L79130 76260
L79050 76290
L78910 76290
" />
<path d="M79750 76290
L79750 75980
L79720 75930
L79660 75900
L79550 75900
L79500 75930
" />
<path d="M79750 76260
L79690 76290
L79550 76290
L79500 76260
L79470 76210
L79470 76150
L79500 76100
L79550 76070
L79690 76070
L79750 76040
" />
<path d="M79950 75900
L80170 75900
" />
<path d="M80030 75700
L80030 76210
L80060 76260
L80110 76290
L80170 76290
" />
<path d="M80590 76260
L80540 76290
L80420 76290
L80370 76260
L80340 76210
L80340 75980
L80370 75930
L80420 75900
L80540 75900
L80590 75930
L80620 75980
L80620 76040
L80340 76100
" />
<path d="M80870 76240
L80900 76260
L80870 76290
L80840 76260
L80870 76240
L80870 76290
" />
<path d="M80870 75930
L80900 75950
L80870 75980
L80840 75950
L80870 75930
L80870 75980
" />
</g>
<g style="fill:#840000; fill-opacity:0.0; 
stroke:#840000; stroke-width:100; stroke-opacity:1; 
stroke-linecap:round; stroke-linejoin:round;">
</g>
<g style="fill:#840000; fill-opacity:0.0; 
stroke:#840000; stroke-width:60; stroke-opacity:1; 
stroke-linecap:round; stroke-linejoin:round;">
<path d="M69690 76580
L112210 76580
" />
</g>
<g style="fill:#840000; fill-opacity:0.0; 
stroke:#840000; stroke-width:100; stroke-opacity:1; 
stroke-linecap:round; stroke-linejoin:round;">
</g>
<g style="fill:#840000; fill-opacity:0.0; 
stroke:#840000; stroke-width:60; stroke-opacity:1; 
stroke-linecap:round; stroke-linejoin:round;">
<path d="M70250 77390
L70250 76800
" />
<path d="M70580 77390
L70330 77050
" />
<path d="M70580 76800
L70250 77140
" />
<path d="M70840 77390
L70840 77000
" />
<path d="M70840 76800
L70810 76830
L70840 76860
L70860 76830
L70840 76800
L70840 76860
" />
<path d="M71450 77340
L71430 77360
L71340 77390
L71290 77390
L71200 77360
L71140 77310
L71120 77250
L71090 77140
L71090 77050
L71120 76940
L71140 76890
L71200 76830
L71290 76800
L71340 76800
L71430 76830
L71450 76860
" />
<path d="M71960 77390
L71960 77080
L71930 77030
L71880 77000
L71760 77000
L71710 77030
" />
<path d="M71960 77360
L71900 77390
L71760 77390
L71710 77360
L71680 77310
L71680 77250
L71710 77200
L71760 77170
L71900 77170
L71960 77140
" />
<path d="M72490 77390
L72490 76800
" />
<path d="M72490 77360
L72440 77390
L72320 77390
L72270 77360
L72240 77340
L72210 77280
L72210 77110
L72240 77050
L72270 77030
L72320 77000
L72440 77000
L72490 77030
" />
<path d="M73220 77080
L73420 77080
" />
<path d="M73500 77390
L73220 77390
L73220 76800
L73500 76800
" />
<path d="M73760 77340
L73790 77360
L73760 77390
L73730 77360
L73760 77340
L73760 77390
" />
<path d="M74040 77390
L74040 76800
L74180 76800
L74260 76830
L74320 76890
L74350 76940
L74380 77050
L74380 77140
L74350 77250
L74320 77310
L74260 77360
L74180 77390
L74040 77390
" />
<path d="M74630 77340
L74660 77360
L74630 77390
L74600 77360
L74630 77340
L74630 77390
" />
<path d="M74880 77220
L75160 77220
" />
<path d="M74830 77390
L75020 76800
L75220 77390
" />
<path d="M75420 77340
L75440 77360
L75420 77390
L75390 77360
L75420 77340
L75420 77390
" />
<path d="M76600 77390
L76600 76800
" />
<path d="M76650 77170
L76820 77390
" />
<path d="M76820 77000
L76600 77220
" />
<path d="M77070 77390
L77070 77000
" />
<path d="M77070 76800
L77040 76830
L77070 76860
L77100 76830
L77070 76800
L77070 76860
" />
<path d="M77610 77360
L77550 77390
L77440 77390
L77380 77360
L77350 77340
L77330 77280
L77330 77110
L77350 77050
L77380 77030
L77440 77000
L77550 77000
L77610 77030
" />
<path d="M78110 77390
L78110 77080
L78080 77030
L78030 77000
L77920 77000
L77860 77030
" />
<path d="M78110 77360
L78060 77390
L77920 77390
L77860 77360
L77830 77310
L77830 77250
L77860 77200
L77920 77170
L78060 77170
L78110 77140
" />
<path d="M78650 77390
L78650 76800
" />
<path d="M78650 77360
L78590 77390
L78480 77390
L78420 77360
L78390 77340
L78370 77280
L78370 77110
L78390 77050
L78420 77030
L78480 77000
L78590 77000
L78650 77030
" />
<path d="M79550 77620
L79520 77590
L79460 77500
L79430 77450
L79400 77360
L79380 77220
L79380 77110
L79400 76970
L79430 76890
L79460 76830
L79520 76750
L79550 76720
" />
<path d="M80050 76800
L79770 76800
L79740 77080
L79770 77050
L79830 77030
L79970 77030
L80020 77050
L80050 77080
L80080 77140
L80080 77280
L80050 77340
L80020 77360
L79970 77390
L79830 77390
L79770 77360
L79740 77340
" />
<path d="M80330 77340
L80360 77360
L80330 77390
L80300 77360
L80330 77340
L80330 77390
" />
<path d="M80730 76800
L80780 76800
L80840 76830
L80870 76860
L80890 76910
L80920 77030
L80920 77170
L80890 77280
L80870 77340
L80840 77360
L80780 77390
L80730 77390
L80670 77360
L80640 77340
L80610 77280
L80580 77170
L80580 77030
L80610 76910
L80640 76860
L80670 76830
L80730 76800
" />
<path d="M81170 77340
L81200 77360
L81170 77390
L81150 77360
L81170 77340
L81170 77390
" />
<path d="M81570 76800
L81620 76800
L81680 76830
L81710 76860
L81740 76910
L81760 77030
L81760 77170
L81740 77280
L81710 77340
L81680 77360
L81620 77390
L81570 77390
L81510 77360
L81480 77340
L81460 77280
L81430 77170
L81430 77030
L81460 76910
L81480 76860
L81510 76830
L81570 76800
" />
<path d="M81960 77620
L81990 77590
L82050 77500
L82070 77450
L82100 77360
L82130 77220
L82130 77110
L82100 76970
L82070 76890
L82050 76830
L81990 76750
L81960 76720
" />
</g>
<g style="fill:#840000; fill-opacity:0.0; 
stroke:#840000; stroke-width:100; stroke-opacity:1; 
stroke-linecap:round; stroke-linejoin:round;">
</g>
<g style="fill:#840000; fill-opacity:0.0; 
stroke:#840000; stroke-width:60; stroke-opacity:1; 
stroke-linecap:round; stroke-linejoin:round;">
<path d="M69690 75400
L112210 75400
" />
</g>
<g style="fill:#840000; fill-opacity:0.0; 
stroke:#840000; stroke-width:100; stroke-opacity:1; 
stroke-linecap:round; stroke-linejoin:round;">
</g>
<g style="fill:#840000; fill-opacity:0.0; 
stroke:#840000; stroke-width:120; stroke-opacity:1; 
stroke-linecap:round; stroke-linejoin:round;">
<path d="M104090 76290
L103890 76010
" />
<path d="M103750 76290
L103750 75700
L103980 75700
L104030 75730
L104060 75760
L104090 75810
L104090 75900
L104060 75950
L104030 75980
L103980 76010
L103750 76010
" />
<path d="M104570 76260
L104510 76290
L104400 76290
L104340 76260
L104320 76210
L104320 75980
L104340 75930
L104400 75900
L104510 75900
L104570 75930
L104600 75980
L104600 76040
L104320 76100
" />
<path d="M104790 75900
L104930 76290
L105070 75900
" />
<path d="M105300 76240
L105330 76260
L105300 76290
L105270 76260
L105300 76240
L105300 76290
" />
<path d="M105300 75930
L105330 75950
L105300 75980
L105270 75950
L105300 75930
L105300 75980
" />
</g>
<g style="fill:#840000; fill-opacity:0.0; 
stroke:#840000; stroke-width:100; stroke-opacity:1; 
stroke-linecap:round; stroke-linejoin:round;">
</g>
<g style="fill:#840000; fill-opacity:0.0; 
stroke:#840000; stroke-width:60; stroke-opacity:1; 
stroke-linecap:round; stroke-linejoin:round;">
<path d="M70220 76260
L70300 76290
L70440 76290
L70500 76260
L70530 76240
L70550 76180
L70550 76120
L70530 76070
L70500 76040
L70440 76010
L70330 75980
L70270 75950
L70250 75930
L70220 75870
L70220 75810
L70250 75760
L70270 75730
L70330 75700
L70470 75700
L70550 75730
" />
<path d="M70810 76290
L70810 75900
" />
<path d="M70810 75700
L70780 75730
L70810 75760
L70840 75730
L70810 75700
L70810 75760
" />
<path d="M71030 75900
L71340 75900
L71030 76290
L71340 76290
" />
<path d="M71790 76260
L71730 76290
L71620 76290
L71570 76260
L71540 76210
L71540 75980
L71570 75930
L71620 75900
L71730 75900
L71790 75930
L71820 75980
L71820 76040
L71540 76100
" />
<path d="M72070 76240
L72100 76260
L72070 76290
L72040 76260
L72070 76240
L72070 76290
" />
<path d="M72070 75930
L72100 75950
L72070 75980
L72040 75950
L72070 75930
L72070 75980
" />
<path d="M72770 76120
L73060 76120
" />
<path d="M72720 76290
L72910 75700
L73110 76290
" />
<path d="M73560 75900
L73560 76290
" />
<path d="M73420 75670
L73280 76100
L73650 76100
" />
</g>
<g style="fill:#840000; fill-opacity:0.0; 
stroke:#840000; stroke-width:100; stroke-opacity:1; 
stroke-linecap:round; stroke-linejoin:round;">
</g>
<g style="fill:#840000; fill-opacity:0.0; 
stroke:#840000; stroke-width:60; stroke-opacity:1; 
stroke-linecap:round; stroke-linejoin:round;">
<path d="M103710 77390
L103710 76800
" />
<path d="M104240 77390
L104240 76800
" />
<path d="M104240 77360
L104180 77390
L104070 77390
L104010 77360
L103990 77340
L103960 77280
L103960 77110
L103990 77050
L104010 77030
L104070 77000
L104180 77000
L104240 77030
" />
<path d="M104520 77340
L104550 77360
L104520 77390
L104490 77360
L104520 77340
L104520 77390
" />
<path d="M104520 77030
L104550 77050
L104520 77080
L104490 77050
L104520 77030
L104520 77080
" />
<path d="M105560 77390
L105220 77390
" />
<path d="M105390 77390
L105390 76800
L105340 76890
L105280 76940
L105220 76970
" />
<path d="M106230 76770
L105730 77530
" />
<path d="M106740 77390
L106400 77390
" />
<path d="M106570 77390
L106570 76800
L106520 76890
L106460 76940
L106400 76970
" />
</g>
<g style="fill:#840000; fill-opacity:0.0; 
stroke:#840000; stroke-width:100; stroke-opacity:1; 
stroke-linecap:round; stroke-linejoin:round;">
</g>
<g style="fill:#840000; fill-opacity:0.0; 
stroke:#840000; stroke-width:60; stroke-opacity:1; 
stroke-linecap:round; stroke-linejoin:round;">
<path d="M69690 73820
L112210 73820
" />
</g>
<g style="fill:#840000; fill-opacity:0.0; 
stroke:#840000; stroke-width:100; stroke-opacity:1; 
stroke-linecap:round; stroke-linejoin:round;">
</g>
<g style="fill:#840000; fill-opacity:0.0; 
stroke:#840000; stroke-width:160; stroke-opacity:1; 
stroke-linecap:round; stroke-linejoin:round;">
<path d="M70360 74090
L70810 74090
" />
<path d="M70480 74880
L70580 74090
" />
<path d="M70970 74880
L71040 74360
" />
<path d="M71070 74090
L71030 74130
L71060 74170
L71110 74130
L71070 74090
L71060 74170
" />
<path d="M71300 74360
L71600 74360
" />
<path d="M71450 74090
L71360 74770
L71390 74840
L71460 74880
L71540 74880
" />
<path d="M71910 74880
L71840 74840
L71820 74770
L71900 74090
" />
<path d="M72520 74840
L72440 74880
L72290 74880
L72220 74840
L72190 74770
L72230 74470
L72280 74390
L72360 74360
L72510 74360
L72580 74390
L72610 74470
L72600 74540
L72210 74620
" />
<path d="M72900 74810
L72930 74840
L72890 74880
L72860 74840
L72900 74810
L72890 74880
" />
<path d="M72950 74390
L72990 74430
L72940 74470
L72910 74430
L72950 74390
L72940 74470
" />
</g>
<g style="fill:#840000; fill-opacity:0.0; 
stroke:#840000; stroke-width:100; stroke-opacity:1; 
stroke-linecap:round; stroke-linejoin:round;">
</g>
<g style="fill:#840000; fill-opacity:0.0; 
stroke:#840000; stroke-width:60; stroke-opacity:1; 
stroke-linecap:round; stroke-linejoin:round;">
<path d="M70440 73060
L70250 73060
" />
<path d="M70250 73370
L70250 72780
L70530 72780
" />
<path d="M70750 73370
L70750 72980
" />
<path d="M70750 72780
L70720 72810
L70750 72840
L70780 72810
L70750 72780
L70750 72840
" />
<path d="M71120 73370
L71060 73340
L71030 73290
L71030 72780
" />
<path d="M71570 73340
L71510 73370
L71400 73370
L71340 73340
L71310 73290
L71310 73060
L71340 73010
L71400 72980
L71510 72980
L71570 73010
L71590 73060
L71590 73120
L71310 73180
" />
<path d="M71850 73320
L71880 73340
L71850 73370
L71820 73340
L71850 73320
L71850 73370
" />
<path d="M71850 73010
L71880 73030
L71850 73060
L71820 73030
L71850 73010
L71850 73060
" />
<path d="M72580 73370
L72580 72780
" />
<path d="M72910 73370
L72660 73030
" />
<path d="M72910 72780
L72580 73120
" />
<path d="M73170 73370
L73170 72980
" />
<path d="M73170 72780
L73140 72810
L73170 72840
L73200 72810
L73170 72780
L73170 72840
" />
<path d="M73790 73320
L73760 73340
L73670 73370
L73620 73370
L73530 73340
L73480 73290
L73450 73230
L73420 73120
L73420 73030
L73450 72920
L73480 72870
L73530 72810
L73620 72780
L73670 72780
L73760 72810
L73790 72840
" />
<path d="M74290 73370
L74290 73060
L74260 73010
L74210 72980
L74090 72980
L74040 73010
" />
<path d="M74290 73340
L74240 73370
L74090 73370
L74040 73340
L74010 73290
L74010 73230
L74040 73180
L74090 73150
L74240 73150
L74290 73120
" />
<path d="M74830 73370
L74830 72780
" />
<path d="M74830 73340
L74770 73370
L74660 73370
L74600 73340
L74570 73320
L74540 73260
L74540 73090
L74570 73030
L74600 73010
L74660 72980
L74770 72980
L74830 73010
" />
<path d="M75110 73320
L75130 73340
L75110 73370
L75080 73340
L75110 73320
L75110 73370
" />
<path d="M75360 73340
L75420 73370
L75530 73370
L75580 73340
L75610 73290
L75610 73260
L75580 73200
L75530 73180
L75440 73180
L75390 73150
L75360 73090
L75360 73060
L75390 73010
L75440 72980
L75530 72980
L75580 73010
" />
<path d="M76120 73340
L76060 73370
L75950 73370
L75890 73340
L75860 73320
L75840 73260
L75840 73090
L75860 73030
L75890 73010
L75950 72980
L76060 72980
L76120 73010
" />
<path d="M76370 73370
L76370 72780
" />
<path d="M76620 73370
L76620 73060
L76600 73010
L76540 72980
L76450 72980
L76400 73010
L76370 73030
" />
</g>
<g style="fill:#840000; fill-opacity:0.0; 
stroke:#840000; stroke-width:100; stroke-opacity:1; 
stroke-linecap:round; stroke-linejoin:round;">
</g>
<g style="fill:#840000; fill-opacity:0.0; 
stroke:#840000; stroke-width:60; stroke-opacity:1; 
stroke-linecap:round; stroke-linejoin:round;">
<path d="M69690 71460
L112210 71460
" />
</g>
<g style="fill:#840000; fill-opacity:0.0; 
stroke:#840000; stroke-width:100; stroke-opacity:1; 
stroke-linecap:round; stroke-linejoin:round;">
</g>
<g style="fill:#840000; fill-opacity:0.0; 
stroke:#840000; stroke-width:60; stroke-opacity:1; 
stroke-linecap:round; stroke-linejoin:round;">
<path d="M70220 72280
L70300 72310
L70440 72310
L70500 72280
L70530 72260
L70550 72200
L70550 72140
L70530 72090
L70500 72060
L70440 72030
L70330 72000
L70270 71970
L70250 71950
L70220 71890
L70220 71830
L70250 71780
L70270 71750
L70330 71720
L70470 71720
L70550 71750
" />
<path d="M70810 72310
L70810 71720
" />
<path d="M71060 72310
L71060 72000
L71030 71950
L70980 71920
L70890 71920
L70840 71950
L70810 71970
" />
<path d="M71570 72280
L71510 72310
L71400 72310
L71340 72280
L71310 72230
L71310 72000
L71340 71950
L71400 71920
L71510 71920
L71570 71950
L71590 72000
L71590 72060
L71310 72120
" />
<path d="M72070 72280
L72020 72310
L71900 72310
L71850 72280
L71820 72230
L71820 72000
L71850 71950
L71900 71920
L72020 71920
L72070 71950
L72100 72000
L72100 72060
L71820 72120
" />
<path d="M72270 71920
L72490 71920
" />
<path d="M72350 71720
L72350 72230
L72380 72280
L72440 72310
L72490 72310
" />
<path d="M72690 72260
L72720 72280
L72690 72310
L72660 72280
L72690 72260
L72690 72310
" />
<path d="M72690 71950
L72720 71970
L72690 72000
L72660 71970
L72690 71950
L72690 72000
" />
<path d="M73840 71690
L73340 72450
" />
</g>
<g style="fill:#840000; fill-opacity:0.0; 
stroke:#840000; stroke-width:100; stroke-opacity:1; 
stroke-linecap:round; stroke-linejoin:round;">
</g>
<g style="fill:#840000; fill-opacity:0.0; 
stroke:#840000; stroke-width:60; stroke-opacity:1; 
stroke-linecap:round; stroke-linejoin:round;">
<path d="M77560 75400
L77560 76580
" />
</g>
<g style="fill:#840000; fill-opacity:0.0; 
stroke:#840000; stroke-width:100; stroke-opacity:1; 
stroke-linecap:round; stroke-linejoin:round;">
</g>
<g style="fill:#840000; fill-opacity:0.0; 
stroke:#840000; stroke-width:60; stroke-opacity:1; 
stroke-linecap:round; stroke-linejoin:round;">
<path d="M102760 75400
L102760 77960
" />
</g>
<g style="fill:#840000; fill-opacity:0.0; 
stroke:#840000; stroke-width:0; stroke-opacity:1; 
stroke-linecap:round; stroke-linejoin:round;">
</g>
<g style="fill:#FFFFC2; fill-opacity:0.0; 
stroke:#FFFFC2; stroke-width:0; stroke-opacity:1; 
stroke-linecap:round; stroke-linejoin:round;">
</g>
<g style="fill:#FFFFC2; fill-opacity:0.6; 
stroke:#FFFFC2; stroke-width:0; stroke-opacity:1; 
stroke-linecap:round; stroke-linejoin:round;">
<rect x="29500" y="16500" width="10000" height="13000" rx="0" />
</g>
<g style="fill:#840000; fill-opacity:0.6; 
stroke:#840000; stroke-width:0; stroke-opacity:1; 
stroke-linecap:round; stroke-linejoin:round;">
</g>
<g style="fill:#840000; fill-opacity:0.0; 
stroke:#840000; stroke-width:100; stroke-opacity:1; 
stroke-linecap:round; stroke-linejoin:round;">
<rect x="29500" y="16500" width="10000" height="13000" rx="0" />
</g>
<g style="fill:#840000; fill-opacity:0.0; 
stroke:#840000; stroke-width:60; stroke-opacity:1; 
stroke-linecap:round; stroke-linejoin:round;">
<path d="M29500 17500
L28500 17500
" />
</g>
<g style="fill:#008484; fill-opacity:0.0; 
stroke:#008484; stroke-width:60; stroke-opacity:1; 
stroke-linecap:round; stroke-linejoin:round;">
<path d="M29730 17080
L30230 17080
" />
<path d="M30130 17720
L29960 17480
" />
<path d="M29840 17720
L29840 17220
L30030 17220
L30080 17250
L30110 17270
L30130 17320
L30130 17390
L30110 17440
L30080 17460
L30030 17480
L29840 17480
" />
<path d="M30230 17080
L30700 17080
" />
<path d="M30320 17700
L30390 17720
L30510 17720
L30560 17700
L30580 17670
L30610 17630
L30610 17580
L30580 17530
L30560 17510
L30510 17480
L30420 17460
L30370 17440
L30340 17410
L30320 17360
L30320 17320
L30340 17270
L30370 17250
L30420 17220
L30530 17220
L30610 17250
" />
<path d="M30700 17080
L31080 17080
" />
<path d="M30750 17220
L31030 17220
" />
<path d="M30890 17720
L30890 17220
" />
</g>
<g style="fill:#840000; fill-opacity:0.0; 
stroke:#840000; stroke-width:60; stroke-opacity:1; 
stroke-linecap:round; stroke-linejoin:round;">
<path d="M29140 17370
L28850 17370
" />
<path d="M29000 17370
L29000 16870
L28950 16940
L28900 16990
L28850 17010
" />
<path d="M29500 24500
L28500 24500
" />
</g>
<g style="fill:#008484; fill-opacity:0.0; 
stroke:#008484; stroke-width:60; stroke-opacity:1; 
stroke-linecap:round; stroke-linejoin:round;">
<path d="M29840 24720
L29840 24220
L30010 24580
L30180 24220
L30180 24720
" />
<path d="M30420 24720
L30420 24220
" />
<path d="M30630 24700
L30700 24720
L30820 24720
L30870 24700
L30890 24670
L30920 24630
L30920 24580
L30890 24530
L30870 24510
L30820 24480
L30730 24460
L30680 24440
L30650 24410
L30630 24360
L30630 24320
L30650 24270
L30680 24250
L30730 24220
L30840 24220
L30920 24250
" />
<path d="M31230 24220
L31320 24220
L31370 24250
L31420 24290
L31440 24390
L31440 24550
L31420 24650
L31370 24700
L31320 24720
L31230 24720
L31180 24700
L31130 24650
L31110 24550
L31110 24390
L31130 24290
L31180 24250
L31230 24220
" />
</g>
<g style="fill:#840000; fill-opacity:0.0; 
stroke:#840000; stroke-width:60; stroke-opacity:1; 
stroke-linecap:round; stroke-linejoin:round;">
<path d="M28900 24370
L28610 24370
" />
<path d="M28760 24370
L28760 23870
L28710 23940
L28660 23990
L28610 24010
" />
<path d="M29210 23870
L29260 23870
L29300 23900
L29330 23920
L29350 23970
L29380 24060
L29380 24180
L29350 24280
L29330 24320
L29300 24350
L29260 24370
L29210 24370
L29160 24350
L29140 24320
L29110 24280
L29090 24180
L29090 24060
L29110 23970
L29140 23920
L29160 23900
L29210 23870
" />
<path d="M29500 25500
L28500 25500
" />
</g>
<g style="fill:#008484; fill-opacity:0.0; 
stroke:#008484; stroke-width:60; stroke-opacity:1; 
stroke-linecap:round; stroke-linejoin:round;">
<path d="M30110 25250
L30060 25220
L29990 25220
L29920 25250
L29870 25290
L29840 25340
L29820 25440
L29820 25510
L29840 25600
L29870 25650
L29920 25700
L29990 25720
L30030 25720
L30110 25700
L30130 25670
L30130 25510
L30030 25510
" />
<path d="M30340 25720
L30340 25220
L30530 25220
L30580 25250
L30610 25270
L30630 25320
L30630 25390
L30610 25440
L30580 25460
L30530 25480
L30340 25480
" />
<path d="M30840 25720
L30840 25220
" />
<path d="M31180 25220
L31270 25220
L31320 25250
L31370 25290
L31390 25390
L31390 25550
L31370 25650
L31320 25700
L31270 25720
L31180 25720
L31130 25700
L31080 25650
L31060 25550
L31060 25390
L31080 25290
L31130 25250
L31180 25220
" />
<path d="M31630 25720
L31730 25720
L31770 25700
L31800 25670
L31840 25600
L31870 25510
L31870 25320
L31840 25270
L31820 25250
L31770 25220
L31680 25220
L31630 25250
L31610 25270
L31580 25320
L31580 25440
L31610 25480
L31630 25510
L31680 25530
L31770 25530
L31820 25510
L31840 25480
L31870 25440
" />
</g>
<g style="fill:#840000; fill-opacity:0.0; 
stroke:#840000; stroke-width:60; stroke-opacity:1; 
stroke-linecap:round; stroke-linejoin:round;">
<path d="M28900 25370
L28610 25370
" />
<path d="M28760 25370
L28760 24870
L28710 24940
L28660 24990
L28610 25010
" />
<path d="M29380 25370
L29090 25370
" />
<path d="M29230 25370
L29230 24870
L29190 24940
L29140 24990
L29090 25010
" />
<path d="M29500 26500
L28500 26500
" />
</g>
<g style="fill:#008484; fill-opacity:0.0; 
stroke:#008484; stroke-width:60; stroke-opacity:1; 
stroke-linecap:round; stroke-linejoin:round;">
<path d="M30110 26250
L30060 26220
L29990 26220
L29920 26250
L29870 26290
L29840 26340
L29820 26440
L29820 26510
L29840 26600
L29870 26650
L29920 26700
L29990 26720
L30030 26720
L30110 26700
L30130 26670
L30130 26510
L30030 26510
" />
<path d="M30340 26720
L30340 26220
L30530 26220
L30580 26250
L30610 26270
L30630 26320
L30630 26390
L30610 26440
L30580 26460
L30530 26480
L30340 26480
" />
<path d="M30840 26720
L30840 26220
" />
<path d="M31180 26220
L31270 26220
L31320 26250
L31370 26290
L31390 26390
L31390 26550
L31370 26650
L31320 26700
L31270 26720
L31180 26720
L31130 26700
L31080 26650
L31060 26550
L31060 26390
L31080 26290
L31130 26250
L31180 26220
" />
<path d="M31870 26720
L31580 26720
" />
<path d="M31730 26720
L31730 26220
L31680 26290
L31630 26340
L31580 26360
" />
<path d="M32180 26220
L32230 26220
L32270 26250
L32300 26270
L32320 26320
L32340 26410
L32340 26530
L32320 26630
L32300 26670
L32270 26700
L32230 26720
L32180 26720
L32130 26700
L32110 26670
L32080 26630
L32060 26530
L32060 26410
L32080 26320
L32110 26270
L32130 26250
L32180 26220
" />
</g>
<g style="fill:#840000; fill-opacity:0.0; 
stroke:#840000; stroke-width:60; stroke-opacity:1; 
stroke-linecap:round; stroke-linejoin:round;">
<path d="M28900 26370
L28610 26370
" />
<path d="M28760 26370
L28760 25870
L28710 25940
L28660 25990
L28610 26010
" />
<path d="M29090 25920
L29110 25900
L29160 25870
L29280 25870
L29330 25900
L29350 25920
L29380 25970
L29380 26010
L29350 26090
L29070 26370
L29380 26370
" />
<path d="M29500 27500
L28500 27500
" />
</g>
<g style="fill:#008484; fill-opacity:0.0; 
stroke:#008484; stroke-width:60; stroke-opacity:1; 
stroke-linecap:round; stroke-linejoin:round;">
<path d="M29840 27720
L29840 27220
L30010 27580
L30180 27220
L30180 27720
" />
<path d="M30510 27220
L30610 27220
L30650 27250
L30700 27290
L30730 27390
L30730 27550
L30700 27650
L30650 27700
L30610 27720
L30510 27720
L30460 27700
L30420 27650
L30390 27550
L30390 27390
L30420 27290
L30460 27250
L30510 27220
" />
<path d="M30920 27700
L30990 27720
L31110 27720
L31150 27700
L31180 27670
L31200 27630
L31200 27580
L31180 27530
L31150 27510
L31110 27480
L31010 27460
L30960 27440
L30940 27410
L30920 27360
L30920 27320
L30940 27270
L30960 27250
L31010 27220
L31130 27220
L31200 27250
" />
<path d="M31420 27720
L31420 27220
" />
</g>
<g style="fill:#840000; fill-opacity:0.0; 
stroke:#840000; stroke-width:60; stroke-opacity:1; 
stroke-linecap:round; stroke-linejoin:round;">
<path d="M28900 27370
L28610 27370
" />
<path d="M28760 27370
L28760 26870
L28710 26940
L28660 26990
L28610 27010
" />
<path d="M29070 26870
L29380 26870
L29210 27060
L29280 27060
L29330 27090
L29350 27110
L29380 27160
L29380 27280
L29350 27320
L29330 27350
L29280 27370
L29140 27370
L29090 27350
L29070 27320
" />
<path d="M29500 28500
L28500 28500
" />
</g>
<g style="fill:#008484; fill-opacity:0.0; 
stroke:#008484; stroke-width:60; stroke-opacity:1; 
stroke-linecap:round; stroke-linejoin:round;">
<path d="M29820 28700
L29890 28720
L30010 28720
L30060 28700
L30080 28670
L30110 28630
L30110 28580
L30080 28530
L30060 28510
L30010 28480
L29920 28460
L29870 28440
L29840 28410
L29820 28360
L29820 28320
L29840 28270
L29870 28250
L29920 28220
L30030 28220
L30110 28250
" />
<path d="M30610 28670
L30580 28700
L30510 28720
L30460 28720
L30390 28700
L30340 28650
L30320 28600
L30300 28510
L30300 28440
L30320 28340
L30340 28290
L30390 28250
L30460 28220
L30510 28220
L30580 28250
L30610 28270
" />
<path d="M31060 28720
L30820 28720
L30820 28220
" />
<path d="M31230 28720
L31230 28220
" />
<path d="M31510 28720
L31300 28440
" />
<path d="M31510 28220
L31230 28510
" />
</g>
<g style="fill:#840000; fill-opacity:0.0; 
stroke:#840000; stroke-width:60; stroke-opacity:1; 
stroke-linecap:round; stroke-linejoin:round;">
<path d="M28900 28370
L28610 28370
" />
<path d="M28760 28370
L28760 27870
L28710 27940
L28660 27990
L28610 28010
" />
<path d="M29330 28040
L29330 28370
" />
<path d="M29210 27850
L29090 28200
L29400 28200
" />
<path d="M34500 29500
L34500 30500
" />
</g>
<g style="fill:#008484; fill-opacity:0.0; 
stroke:#008484; stroke-width:60; stroke-opacity:1; 
stroke-linecap:round; stroke-linejoin:round;">
<path d="M34250 28880
L34220 28930
L34220 29000
L34250 29070
L34290 29120
L34340 29150
L34440 29170
L34510 29170
L34600 29150
L34650 29120
L34700 29070
L34720 29000
L34720 28960
L34700 28880
L34670 28860
L34510 28860
L34510 28960
" />
<path d="M34720 28650
L34220 28650
L34720 28360
L34220 28360
" />
<path d="M34720 28120
L34220 28120
L34220 28000
L34250 27930
L34290 27880
L34340 27860
L34440 27840
L34510 27840
L34600 27860
L34650 27880
L34700 27930
L34720 28000
L34720 28120
" />
</g>
<g style="fill:#840000; fill-opacity:0.0; 
stroke:#840000; stroke-width:60; stroke-opacity:1; 
stroke-linecap:round; stroke-linejoin:round;">
<path d="M34370 30090
L34370 30380
" />
<path d="M34370 30230
L33870 30230
L33940 30280
L33990 30330
L34010 30380
" />
<path d="M33870 29640
L33870 29880
L34110 29900
L34090 29880
L34060 29830
L34060 29710
L34090 29660
L34110 29640
L34160 29610
L34280 29610
L34320 29640
L34350 29660
L34370 29710
L34370 29830
L34350 29880
L34320 29900
" />
<path d="M39500 26500
L40500 26500
" />
</g>
<g style="fill:#008484; fill-opacity:0.0; 
stroke:#008484; stroke-width:60; stroke-opacity:1; 
stroke-linecap:round; stroke-linejoin:round;">
<path d="M36930 26250
L36880 26220
L36810 26220
L36740 26250
L36690 26290
L36670 26340
L36650 26440
L36650 26510
L36670 26600
L36690 26650
L36740 26700
L36810 26720
L36860 26720
L36930 26700
L36960 26670
L36960 26510
L36860 26510
" />
<path d="M37170 26720
L37170 26220
L37360 26220
L37410 26250
L37430 26270
L37460 26320
L37460 26390
L37430 26440
L37410 26460
L37360 26480
L37170 26480
" />
<path d="M37670 26720
L37670 26220
" />
<path d="M38000 26220
L38100 26220
L38150 26250
L38190 26290
L38220 26390
L38220 26550
L38190 26650
L38150 26700
L38100 26720
L38000 26720
L37960 26700
L37910 26650
L37880 26550
L37880 26390
L37910 26290
L37960 26250
L38000 26220
" />
<path d="M38690 26720
L38410 26720
" />
<path d="M38550 26720
L38550 26220
L38500 26290
L38460 26340
L38410 26360
" />
<path d="M39150 26220
L38910 26220
L38880 26460
L38910 26440
L38960 26410
L39070 26410
L39120 26440
L39150 26460
L39170 26510
L39170 26630
L39150 26670
L39120 26700
L39070 26720
L38960 26720
L38910 26700
L38880 26670
" />
</g>
<g style="fill:#840000; fill-opacity:0.0; 
stroke:#840000; stroke-width:60; stroke-opacity:1; 
stroke-linecap:round; stroke-linejoin:round;">
<path d="M39900 26370
L39610 26370
" />
<path d="M39760 26370
L39760 25870
L39710 25940
L39660 25990
L39610 26010
" />
<path d="M40330 25870
L40230 25870
L40190 25900
L40160 25920
L40110 25990
L40090 26090
L40090 26280
L40110 26320
L40140 26350
L40190 26370
L40280 26370
L40330 26350
L40350 26320
L40380 26280
L40380 26160
L40350 26110
L40330 26090
L40280 26060
L40190 26060
L40140 26090
L40110 26110
L40090 26160
" />
<path d="M39500 19500
L40500 19500
" />
</g>
<g style="fill:#008484; fill-opacity:0.0; 
stroke:#008484; stroke-width:60; stroke-opacity:1; 
stroke-linecap:round; stroke-linejoin:round;">
<path d="M37410 19250
L37360 19220
L37290 19220
L37220 19250
L37170 19290
L37150 19340
L37120 19440
L37120 19510
L37150 19600
L37170 19650
L37220 19700
L37290 19720
L37340 19720
L37410 19700
L37430 19670
L37430 19510
L37340 19510
" />
<path d="M37650 19720
L37650 19220
L37840 19220
L37880 19250
L37910 19270
L37930 19320
L37930 19390
L37910 19440
L37880 19460
L37840 19480
L37650 19480
" />
<path d="M38150 19720
L38150 19220
" />
<path d="M38480 19220
L38570 19220
L38620 19250
L38670 19290
L38690 19390
L38690 19550
L38670 19650
L38620 19700
L38570 19720
L38480 19720
L38430 19700
L38380 19650
L38360 19550
L38360 19390
L38380 19290
L38430 19250
L38480 19220
" />
<path d="M38880 19270
L38910 19250
L38960 19220
L39070 19220
L39120 19250
L39150 19270
L39170 19320
L39170 19360
L39150 19440
L38860 19720
L39170 19720
" />
</g>
<g style="fill:#840000; fill-opacity:0.0; 
stroke:#840000; stroke-width:60; stroke-opacity:1; 
stroke-linecap:round; stroke-linejoin:round;">
<path d="M39900 19370
L39610 19370
" />
<path d="M39760 19370
L39760 18870
L39710 18940
L39660 18990
L39610 19010
" />
<path d="M40070 18870
L40400 18870
L40190 19370
" />
<path d="M39500 17500
L40500 17500
" />
</g>
<g style="fill:#008484; fill-opacity:0.0; 
stroke:#008484; stroke-width:60; stroke-opacity:1; 
stroke-linecap:round; stroke-linejoin:round;">
<path d="M37410 17250
L37360 17220
L37290 17220
L37220 17250
L37170 17290
L37150 17340
L37120 17440
L37120 17510
L37150 17600
L37170 17650
L37220 17700
L37290 17720
L37340 17720
L37410 17700
L37430 17670
L37430 17510
L37340 17510
" />
<path d="M37650 17720
L37650 17220
L37840 17220
L37880 17250
L37910 17270
L37930 17320
L37930 17390
L37910 17440
L37880 17460
L37840 17480
L37650 17480
" />
<path d="M38150 17720
L38150 17220
" />
<path d="M38480 17220
L38570 17220
L38620 17250
L38670 17290
L38690 17390
L38690 17550
L38670 17650
L38620 17700
L38570 17720
L38480 17720
L38430 17700
L38380 17650
L38360 17550
L38360 17390
L38380 17290
L38430 17250
L38480 17220
" />
<path d="M39000 17220
L39050 17220
L39100 17250
L39120 17270
L39150 17320
L39170 17410
L39170 17530
L39150 17630
L39120 17670
L39100 17700
L39050 17720
L39000 17720
L38960 17700
L38930 17670
L38910 17630
L38880 17530
L38880 17410
L38910 17320
L38930 17270
L38960 17250
L39000 17220
" />
</g>
<g style="fill:#840000; fill-opacity:0.0; 
stroke:#840000; stroke-width:60; stroke-opacity:1; 
stroke-linecap:round; stroke-linejoin:round;">
<path d="M39900 17370
L39610 17370
" />
<path d="M39760 17370
L39760 16870
L39710 16940
L39660 16990
L39610 17010
" />
<path d="M40190 17090
L40140 17060
L40110 17040
L40090 16990
L40090 16970
L40110 16920
L40140 16900
L40190 16870
L40280 16870
L40330 16900
L40350 16920
L40380 16970
L40380 16990
L40350 17040
L40330 17060
L40280 17090
L40190 17090
L40140 17110
L40110 17130
L40090 17180
L40090 17280
L40110 17320
L40140 17350
L40190 17370
L40280 17370
L40330 17350
L40350 17320
L40380 17280
L40380 17180
L40350 17130
L40330 17110
L40280 17090
" />
<path d="M39500 21500
L40500 21500
" />
</g>
<g style="fill:#008484; fill-opacity:0.0; 
stroke:#008484; stroke-width:60; stroke-opacity:1; 
stroke-linecap:round; stroke-linejoin:round;">
<path d="M37410 21250
L37360 21220
L37290 21220
L37220 21250
L37170 21290
L37150 21340
L37120 21440
L37120 21510
L37150 21600
L37170 21650
L37220 21700
L37290 21720
L37340 21720
L37410 21700
L37430 21670
L37430 21510
L37340 21510
" />
<path d="M37650 21720
L37650 21220
L37840 21220
L37880 21250
L37910 21270
L37930 21320
L37930 21390
L37910 21440
L37880 21460
L37840 21480
L37650 21480
" />
<path d="M38150 21720
L38150 21220
" />
<path d="M38480 21220
L38570 21220
L38620 21250
L38670 21290
L38690 21390
L38690 21550
L38670 21650
L38620 21700
L38570 21720
L38480 21720
L38430 21700
L38380 21650
L38360 21550
L38360 21390
L38380 21290
L38430 21250
L38480 21220
" />
<path d="M39120 21390
L39120 21720
" />
<path d="M39000 21200
L38880 21550
L39190 21550
" />
</g>
<g style="fill:#840000; fill-opacity:0.0; 
stroke:#840000; stroke-width:60; stroke-opacity:1; 
stroke-linecap:round; stroke-linejoin:round;">
<path d="M39900 21370
L39610 21370
" />
<path d="M39760 21370
L39760 20870
L39710 20940
L39660 20990
L39610 21010
" />
<path d="M40140 21370
L40230 21370
L40280 21350
L40300 21320
L40350 21250
L40380 21160
L40380 20970
L40350 20920
L40330 20900
L40280 20870
L40190 20870
L40140 20900
L40110 20920
L40090 20970
L40090 21090
L40110 21130
L40140 21160
L40190 21180
L40280 21180
L40330 21160
L40350 21130
L40380 21090
" />
<path d="M29500 21500
L28500 21500
" />
</g>
<g style="fill:#008484; fill-opacity:0.0; 
stroke:#008484; stroke-width:60; stroke-opacity:1; 
stroke-linecap:round; stroke-linejoin:round;">
<path d="M29820 21580
L30060 21580
" />
<path d="M29770 21720
L29940 21220
L30110 21720
" />
<path d="M30270 21720
L30270 21220
L30390 21220
L30460 21250
L30510 21290
L30530 21340
L30560 21440
L30560 21510
L30530 21600
L30510 21650
L30460 21700
L30390 21720
L30270 21720
" />
<path d="M31060 21670
L31030 21700
L30960 21720
L30920 21720
L30840 21700
L30800 21650
L30770 21600
L30750 21510
L30750 21440
L30770 21340
L30800 21290
L30840 21250
L30920 21220
L30960 21220
L31030 21250
L31060 21270
" />
</g>
<g style="fill:#840000; fill-opacity:0.0; 
stroke:#840000; stroke-width:60; stroke-opacity:1; 
stroke-linecap:round; stroke-linejoin:round;">
<path d="M28850 20920
L28880 20900
L28920 20870
L29040 20870
L29090 20900
L29110 20920
L29140 20970
L29140 21010
L29110 21090
L28830 21370
L29140 21370
" />
<path d="M39500 22500
L40500 22500
" />
</g>
<g style="fill:#008484; fill-opacity:0.0; 
stroke:#008484; stroke-width:60; stroke-opacity:1; 
stroke-linecap:round; stroke-linejoin:round;">
<path d="M37410 22250
L37360 22220
L37290 22220
L37220 22250
L37170 22290
L37150 22340
L37120 22440
L37120 22510
L37150 22600
L37170 22650
L37220 22700
L37290 22720
L37340 22720
L37410 22700
L37430 22670
L37430 22510
L37340 22510
" />
<path d="M37650 22720
L37650 22220
L37840 22220
L37880 22250
L37910 22270
L37930 22320
L37930 22390
L37910 22440
L37880 22460
L37840 22480
L37650 22480
" />
<path d="M38150 22720
L38150 22220
" />
<path d="M38480 22220
L38570 22220
L38620 22250
L38670 22290
L38690 22390
L38690 22550
L38670 22650
L38620 22700
L38570 22720
L38480 22720
L38430 22700
L38380 22650
L38360 22550
L38360 22390
L38380 22290
L38430 22250
L38480 22220
" />
<path d="M39150 22220
L38910 22220
L38880 22460
L38910 22440
L38960 22410
L39070 22410
L39120 22440
L39150 22460
L39170 22510
L39170 22630
L39150 22670
L39120 22700
L39070 22720
L38960 22720
L38910 22700
L38880 22670
" />
</g>
<g style="fill:#840000; fill-opacity:0.0; 
stroke:#840000; stroke-width:60; stroke-opacity:1; 
stroke-linecap:round; stroke-linejoin:round;">
<path d="M39610 21920
L39640 21900
L39690 21870
L39800 21870
L39850 21900
L39880 21920
L39900 21970
L39900 22010
L39880 22090
L39590 22370
L39900 22370
" />
<path d="M40210 21870
L40260 21870
L40300 21900
L40330 21920
L40350 21970
L40380 22060
L40380 22180
L40350 22280
L40330 22320
L40300 22350
L40260 22370
L40210 22370
L40160 22350
L40140 22320
L40110 22280
L40090 22180
L40090 22060
L40110 21970
L40140 21920
L40160 21900
L40210 21870
" />
<path d="M39500 20500
L40500 20500
" />
</g>
<g style="fill:#008484; fill-opacity:0.0; 
stroke:#008484; stroke-width:60; stroke-opacity:1; 
stroke-linecap:round; stroke-linejoin:round;">
<path d="M35410 20250
L35360 20220
L35290 20220
L35220 20250
L35170 20290
L35150 20340
L35120 20440
L35120 20510
L35150 20600
L35170 20650
L35220 20700
L35290 20720
L35340 20720
L35410 20700
L35430 20670
L35430 20510
L35340 20510
" />
<path d="M35650 20720
L35650 20220
L35840 20220
L35880 20250
L35910 20270
L35930 20320
L35930 20390
L35910 20440
L35880 20460
L35840 20480
L35650 20480
" />
<path d="M36150 20720
L36150 20220
" />
<path d="M36480 20220
L36570 20220
L36620 20250
L36670 20290
L36690 20390
L36690 20550
L36670 20650
L36620 20700
L36570 20720
L36480 20720
L36430 20700
L36380 20650
L36360 20550
L36360 20390
L36380 20290
L36430 20250
L36480 20220
" />
<path d="M36860 20220
L37170 20220
L37000 20410
L37070 20410
L37120 20440
L37150 20460
L37170 20510
L37170 20630
L37150 20670
L37120 20700
L37070 20720
L36930 20720
L36880 20700
L36860 20670
" />
<path d="M37740 20200
L37310 20840
" />
<path d="M38190 20720
L38030 20480
" />
<path d="M37910 20720
L37910 20220
L38100 20220
L38150 20250
L38170 20270
L38190 20320
L38190 20390
L38170 20440
L38150 20460
L38100 20480
L37910 20480
" />
<path d="M38360 20220
L38690 20720
" />
<path d="M38690 20220
L38360 20720
" />
<path d="M38880 20720
L38880 20220
L39000 20220
L39070 20250
L39120 20290
L39150 20340
L39170 20440
L39170 20510
L39150 20600
L39120 20650
L39070 20700
L39000 20720
L38880 20720
" />
</g>
<g style="fill:#840000; fill-opacity:0.0; 
stroke:#840000; stroke-width:60; stroke-opacity:1; 
stroke-linecap:round; stroke-linejoin:round;">
<path d="M39610 19920
L39640 19900
L39690 19870
L39800 19870
L39850 19900
L39880 19920
L39900 19970
L39900 20010
L39880 20090
L39590 20370
L39900 20370
" />
<path d="M40380 20370
L40090 20370
" />
<path d="M40230 20370
L40230 19870
L40190 19940
L40140 19990
L40090 20010
" />
<path d="M39500 18500
L40500 18500
" />
</g>
<g style="fill:#008484; fill-opacity:0.0; 
stroke:#008484; stroke-width:60; stroke-opacity:1; 
stroke-linecap:round; stroke-linejoin:round;">
<path d="M35530 18250
L35480 18220
L35410 18220
L35340 18250
L35290 18290
L35270 18340
L35240 18440
L35240 18510
L35270 18600
L35290 18650
L35340 18700
L35410 18720
L35460 18720
L35530 18700
L35550 18670
L35550 18510
L35460 18510
" />
<path d="M35770 18720
L35770 18220
L35960 18220
L36000 18250
L36030 18270
L36050 18320
L36050 18390
L36030 18440
L36000 18460
L35960 18480
L35770 18480
" />
<path d="M36270 18720
L36270 18220
" />
<path d="M36600 18220
L36690 18220
L36740 18250
L36790 18290
L36810 18390
L36810 18550
L36790 18650
L36740 18700
L36690 18720
L36600 18720
L36550 18700
L36500 18650
L36480 18550
L36480 18390
L36500 18290
L36550 18250
L36600 18220
" />
<path d="M37290 18720
L37000 18720
" />
<path d="M37150 18720
L37150 18220
L37100 18290
L37050 18340
L37000 18360
" />
<path d="M37860 18200
L37430 18840
" />
<path d="M37960 18220
L38240 18220
" />
<path d="M38100 18720
L38100 18220
" />
<path d="M38360 18220
L38690 18720
" />
<path d="M38690 18220
L38360 18720
" />
<path d="M38880 18720
L38880 18220
L39000 18220
L39070 18250
L39120 18290
L39150 18340
L39170 18440
L39170 18510
L39150 18600
L39120 18650
L39070 18700
L39000 18720
L38880 18720
" />
</g>
<g style="fill:#840000; fill-opacity:0.0; 
stroke:#840000; stroke-width:60; stroke-opacity:1; 
stroke-linecap:round; stroke-linejoin:round;">
<path d="M39610 17920
L39640 17900
L39690 17870
L39800 17870
L39850 17900
L39880 17920
L39900 17970
L39900 18010
L39880 18090
L39590 18370
L39900 18370
" />
<path d="M40090 17920
L40110 17900
L40160 17870
L40280 17870
L40330 17900
L40350 17920
L40380 17970
L40380 18010
L40350 18090
L40070 18370
L40380 18370
" />
<path d="M29500 19500
L28500 19500
" />
</g>
<g style="fill:#008484; fill-opacity:0.0; 
stroke:#008484; stroke-width:60; stroke-opacity:1; 
stroke-linecap:round; stroke-linejoin:round;">
<path d="M29840 19460
L30010 19460
" />
<path d="M30080 19720
L29840 19720
L29840 19220
L30080 19220
" />
<path d="M30300 19720
L30300 19220
L30580 19720
L30580 19220
" />
</g>
<g style="fill:#840000; fill-opacity:0.0; 
stroke:#840000; stroke-width:60; stroke-opacity:1; 
stroke-linecap:round; stroke-linejoin:round;">
<path d="M28830 18870
L29140 18870
L28970 19060
L29040 19060
L29090 19090
L29110 19110
L29140 19160
L29140 19280
L29110 19320
L29090 19350
L29040 19370
L28900 19370
L28850 19350
L28830 19320
" />
<path d="M39500 27500
L40500 27500
" />
</g>
<g style="fill:#008484; fill-opacity:0.0; 
stroke:#008484; stroke-width:60; stroke-opacity:1; 
stroke-linecap:round; stroke-linejoin:round;">
<path d="M36930 27250
L36880 27220
L36810 27220
L36740 27250
L36690 27290
L36670 27340
L36650 27440
L36650 27510
L36670 27600
L36690 27650
L36740 27700
L36810 27720
L36860 27720
L36930 27700
L36960 27670
L36960 27510
L36860 27510
" />
<path d="M37170 27720
L37170 27220
L37360 27220
L37410 27250
L37430 27270
L37460 27320
L37460 27390
L37430 27440
L37410 27460
L37360 27480
L37170 27480
" />
<path d="M37670 27720
L37670 27220
" />
<path d="M38000 27220
L38100 27220
L38150 27250
L38190 27290
L38220 27390
L38220 27550
L38190 27650
L38150 27700
L38100 27720
L38000 27720
L37960 27700
L37910 27650
L37880 27550
L37880 27390
L37910 27290
L37960 27250
L38000 27220
" />
<path d="M38690 27720
L38410 27720
" />
<path d="M38550 27720
L38550 27220
L38500 27290
L38460 27340
L38410 27360
" />
<path d="M39120 27220
L39030 27220
L38980 27250
L38960 27270
L38910 27340
L38880 27440
L38880 27630
L38910 27670
L38930 27700
L38980 27720
L39070 27720
L39120 27700
L39150 27670
L39170 27630
L39170 27510
L39150 27460
L39120 27440
L39070 27410
L38980 27410
L38930 27440
L38910 27460
L38880 27510
" />
</g>
<g style="fill:#840000; fill-opacity:0.0; 
stroke:#840000; stroke-width:60; stroke-opacity:1; 
stroke-linecap:round; stroke-linejoin:round;">
<path d="M40090 27040
L40090 27370
" />
<path d="M39970 26850
L39850 27200
L40160 27200
" />
<path d="M39500 25500
L40500 25500
" />
</g>
<g style="fill:#008484; fill-opacity:0.0; 
stroke:#008484; stroke-width:60; stroke-opacity:1; 
stroke-linecap:round; stroke-linejoin:round;">
<path d="M36930 25250
L36880 25220
L36810 25220
L36740 25250
L36690 25290
L36670 25340
L36650 25440
L36650 25510
L36670 25600
L36690 25650
L36740 25700
L36810 25720
L36860 25720
L36930 25700
L36960 25670
L36960 25510
L36860 25510
" />
<path d="M37170 25720
L37170 25220
L37360 25220
L37410 25250
L37430 25270
L37460 25320
L37460 25390
L37430 25440
L37410 25460
L37360 25480
L37170 25480
" />
<path d="M37670 25720
L37670 25220
" />
<path d="M38000 25220
L38100 25220
L38150 25250
L38190 25290
L38220 25390
L38220 25550
L38190 25650
L38150 25700
L38100 25720
L38000 25720
L37960 25700
L37910 25650
L37880 25550
L37880 25390
L37910 25290
L37960 25250
L38000 25220
" />
<path d="M38690 25720
L38410 25720
" />
<path d="M38550 25720
L38550 25220
L38500 25290
L38460 25340
L38410 25360
" />
<path d="M39120 25390
L39120 25720
" />
<path d="M39000 25200
L38880 25550
L39190 25550
" />
</g>
<g style="fill:#840000; fill-opacity:0.0; 
stroke:#840000; stroke-width:60; stroke-opacity:1; 
stroke-linecap:round; stroke-linejoin:round;">
<path d="M40110 24870
L39880 24870
L39850 25110
L39880 25090
L39920 25060
L40040 25060
L40090 25090
L40110 25110
L40140 25160
L40140 25280
L40110 25320
L40090 25350
L40040 25370
L39920 25370
L39880 25350
L39850 25320
" />
<path d="M39500 23500
L40500 23500
" />
</g>
<g style="fill:#008484; fill-opacity:0.0; 
stroke:#008484; stroke-width:60; stroke-opacity:1; 
stroke-linecap:round; stroke-linejoin:round;">
<path d="M36930 23250
L36880 23220
L36810 23220
L36740 23250
L36690 23290
L36670 23340
L36650 23440
L36650 23510
L36670 23600
L36690 23650
L36740 23700
L36810 23720
L36860 23720
L36930 23700
L36960 23670
L36960 23510
L36860 23510
" />
<path d="M37170 23720
L37170 23220
L37360 23220
L37410 23250
L37430 23270
L37460 23320
L37460 23390
L37430 23440
L37410 23460
L37360 23480
L37170 23480
" />
<path d="M37670 23720
L37670 23220
" />
<path d="M38000 23220
L38100 23220
L38150 23250
L38190 23290
L38220 23390
L38220 23550
L38190 23650
L38150 23700
L38100 23720
L38000 23720
L37960 23700
L37910 23650
L37880 23550
L37880 23390
L37910 23290
L37960 23250
L38000 23220
" />
<path d="M38690 23720
L38410 23720
" />
<path d="M38550 23720
L38550 23220
L38500 23290
L38460 23340
L38410 23360
" />
<path d="M38880 23270
L38910 23250
L38960 23220
L39070 23220
L39120 23250
L39150 23270
L39170 23320
L39170 23360
L39150 23440
L38860 23720
L39170 23720
" />
</g>
<g style="fill:#840000; fill-opacity:0.0; 
stroke:#840000; stroke-width:60; stroke-opacity:1; 
stroke-linecap:round; stroke-linejoin:round;">
<path d="M40090 22870
L40000 22870
L39950 22900
L39920 22920
L39880 22990
L39850 23090
L39850 23280
L39880 23320
L39900 23350
L39950 23370
L40040 23370
L40090 23350
L40110 23320
L40140 23280
L40140 23160
L40110 23110
L40090 23090
L40040 23060
L39950 23060
L39900 23090
L39880 23110
L39850 23160
" />
<path d="M39500 24500
L40500 24500
" />
</g>
<g style="fill:#008484; fill-opacity:0.0; 
stroke:#008484; stroke-width:60; stroke-opacity:1; 
stroke-linecap:round; stroke-linejoin:round;">
<path d="M36930 24250
L36880 24220
L36810 24220
L36740 24250
L36690 24290
L36670 24340
L36650 24440
L36650 24510
L36670 24600
L36690 24650
L36740 24700
L36810 24720
L36860 24720
L36930 24700
L36960 24670
L36960 24510
L36860 24510
" />
<path d="M37170 24720
L37170 24220
L37360 24220
L37410 24250
L37430 24270
L37460 24320
L37460 24390
L37430 24440
L37410 24460
L37360 24480
L37170 24480
" />
<path d="M37670 24720
L37670 24220
" />
<path d="M38000 24220
L38100 24220
L38150 24250
L38190 24290
L38220 24390
L38220 24550
L38190 24650
L38150 24700
L38100 24720
L38000 24720
L37960 24700
L37910 24650
L37880 24550
L37880 24390
L37910 24290
L37960 24250
L38000 24220
" />
<path d="M38690 24720
L38410 24720
" />
<path d="M38550 24720
L38550 24220
L38500 24290
L38460 24340
L38410 24360
" />
<path d="M38860 24220
L39170 24220
L39000 24410
L39070 24410
L39120 24440
L39150 24460
L39170 24510
L39170 24630
L39150 24670
L39120 24700
L39070 24720
L38930 24720
L38880 24700
L38860 24670
" />
</g>
<g style="fill:#840000; fill-opacity:0.0; 
stroke:#840000; stroke-width:60; stroke-opacity:1; 
stroke-linecap:round; stroke-linejoin:round;">
<path d="M39830 23870
L40160 23870
L39950 24370
" />
<path d="M34500 16500
L34500 15500
" />
</g>
<g style="fill:#008484; fill-opacity:0.0; 
stroke:#008484; stroke-width:60; stroke-opacity:1; 
stroke-linecap:round; stroke-linejoin:round;">
<path d="M34220 18110
L34720 17940
L34220 17770
" />
<path d="M34670 17320
L34700 17340
L34720 17420
L34720 17460
L34700 17530
L34650 17580
L34600 17610
L34510 17630
L34440 17630
L34340 17610
L34290 17580
L34250 17530
L34220 17460
L34220 17420
L34250 17340
L34270 17320
" />
<path d="M34670 16820
L34700 16840
L34720 16920
L34720 16960
L34700 17030
L34650 17080
L34600 17110
L34510 17130
L34440 17130
L34340 17110
L34290 17080
L34250 17030
L34220 16960
L34220 16920
L34250 16840
L34270 16820
" />
</g>
<g style="fill:#840000; fill-opacity:0.0; 
stroke:#840000; stroke-width:60; stroke-opacity:1; 
stroke-linecap:round; stroke-linejoin:round;">
<path d="M34090 16040
L34060 16090
L34040 16110
L33990 16140
L33970 16140
L33920 16110
L33900 16090
L33870 16040
L33870 15950
L33900 15900
L33920 15880
L33970 15850
L33990 15850
L34040 15880
L34060 15900
L34090 15950
L34090 16040
L34110 16090
L34130 16110
L34180 16140
L34280 16140
L34320 16110
L34350 16090
L34370 16040
L34370 15950
L34350 15900
L34320 15880
L34280 15850
L34180 15850
L34130 15880
L34110 15900
L34090 15950
" />
<path d="M29500 23500
L28500 23500
" />
</g>
<g style="fill:#008484; fill-opacity:0.0; 
stroke:#008484; stroke-width:60; stroke-opacity:1; 
stroke-linecap:round; stroke-linejoin:round;">
<path d="M30130 23670
L30110 23700
L30030 23720
L29990 23720
L29920 23700
L29870 23650
L29840 23600
L29820 23510
L29820 23440
L29840 23340
L29870 23290
L29920 23250
L29990 23220
L30030 23220
L30110 23250
L30130 23270
" />
<path d="M30320 23700
L30390 23720
L30510 23720
L30560 23700
L30580 23670
L30610 23630
L30610 23580
L30580 23530
L30560 23510
L30510 23480
L30420 23460
L30370 23440
L30340 23410
L30320 23360
L30320 23320
L30340 23270
L30370 23250
L30420 23220
L30530 23220
L30610 23250
" />
<path d="M30920 23220
L30960 23220
L31010 23250
L31030 23270
L31060 23320
L31080 23410
L31080 23530
L31060 23630
L31030 23670
L31010 23700
L30960 23720
L30920 23720
L30870 23700
L30840 23670
L30820 23630
L30800 23530
L30800 23410
L30820 23320
L30840 23270
L30870 23250
L30920 23220
" />
</g>
<g style="fill:#840000; fill-opacity:0.0; 
stroke:#840000; stroke-width:60; stroke-opacity:1; 
stroke-linecap:round; stroke-linejoin:round;">
<path d="M28900 23370
L29000 23370
L29040 23350
L29070 23320
L29110 23250
L29140 23160
L29140 22970
L29110 22920
L29090 22900
L29040 22870
L28950 22870
L28900 22900
L28880 22920
L28850 22970
L28850 23090
L28880 23130
L28900 23160
L28950 23180
L29040 23180
L29090 23160
L29110 23130
L29140 23090
" />
</g>
<g style="fill:#008484; fill-opacity:0.0; 
stroke:#008484; stroke-width:60; stroke-opacity:1; 
stroke-linecap:round; stroke-linejoin:round;">
<path d="M31030 13700
L31200 13700
" />
<path d="M31270 13960
L31030 13960
L31030 13460
L31270 13460
" />
<path d="M31460 13940
L31530 13960
L31650 13960
L31700 13940
L31720 13910
L31750 13870
L31750 13820
L31720 13770
L31700 13750
L31650 13720
L31550 13700
L31510 13680
L31480 13650
L31460 13600
L31460 13560
L31480 13510
L31510 13490
L31550 13460
L31670 13460
L31750 13490
" />
<path d="M31960 13960
L31960 13460
L32150 13460
L32200 13490
L32220 13510
L32250 13560
L32250 13630
L32220 13680
L32200 13700
L32150 13720
L31960 13720
" />
<path d="M32530 13680
L32480 13650
L32460 13630
L32440 13580
L32440 13560
L32460 13510
L32480 13490
L32530 13460
L32630 13460
L32670 13490
L32700 13510
L32720 13560
L32720 13580
L32700 13630
L32670 13650
L32630 13680
L32530 13680
L32480 13700
L32460 13720
L32440 13770
L32440 13870
L32460 13910
L32480 13940
L32530 13960
L32630 13960
L32670 13940
L32700 13910
L32720 13870
L32720 13770
L32700 13720
L32670 13700
L32630 13680
" />
<path d="M32910 13510
L32940 13490
L32980 13460
L33100 13460
L33150 13490
L33170 13510
L33200 13560
L33200 13600
L33170 13680
L32890 13960
L33200 13960
" />
<path d="M33630 13460
L33530 13460
L33480 13490
L33460 13510
L33410 13580
L33390 13680
L33390 13870
L33410 13910
L33440 13940
L33480 13960
L33580 13960
L33630 13940
L33650 13910
L33670 13870
L33670 13750
L33650 13700
L33630 13680
L33580 13650
L33480 13650
L33440 13680
L33410 13700
L33390 13750
" />
<path d="M34100 13460
L34010 13460
L33960 13490
L33940 13510
L33890 13580
L33860 13680
L33860 13870
L33890 13910
L33910 13940
L33960 13960
L34050 13960
L34100 13940
L34130 13910
L34150 13870
L34150 13750
L34130 13700
L34100 13680
L34050 13650
L33960 13650
L33910 13680
L33890 13700
L33860 13750
" />
<path d="M34250 14010
L34630 14010
" />
<path d="M34750 13960
L34750 13460
L35030 13960
L35030 13460
" />
<path d="M35340 13960
L35290 13940
L35270 13910
L35240 13870
L35240 13720
L35270 13680
L35290 13650
L35340 13630
L35410 13630
L35460 13650
L35480 13680
L35510 13720
L35510 13870
L35480 13910
L35460 13940
L35410 13960
L35340 13960
" />
<path d="M35940 13960
L35940 13460
" />
<path d="M35940 13940
L35890 13960
L35790 13960
L35740 13940
L35720 13910
L35700 13870
L35700 13720
L35720 13680
L35740 13650
L35790 13630
L35890 13630
L35940 13650
" />
<path d="M36360 13940
L36320 13960
L36220 13960
L36170 13940
L36150 13890
L36150 13700
L36170 13650
L36220 13630
L36320 13630
L36360 13650
L36390 13700
L36390 13750
L36150 13790
" />
<path d="M36600 13960
L36600 13460
L36770 13820
L36940 13460
L36940 13960
" />
<path d="M37460 13910
L37440 13940
L37360 13960
L37320 13960
L37240 13940
L37200 13890
L37170 13840
L37150 13750
L37150 13680
L37170 13580
L37200 13530
L37240 13490
L37320 13460
L37360 13460
L37440 13490
L37460 13510
" />
<path d="M37670 13460
L37670 13870
L37700 13910
L37720 13940
L37770 13960
L37860 13960
L37910 13940
L37940 13910
L37960 13870
L37960 13460
" />
<path d="M32890 14610
L33050 14610
" />
<path d="M33130 14870
L32890 14870
L32890 14370
L33130 14370
" />
<path d="M33320 14850
L33390 14870
L33510 14870
L33550 14850
L33580 14820
L33600 14780
L33600 14730
L33580 14680
L33550 14660
L33510 14630
L33410 14610
L33360 14590
L33340 14560
L33320 14510
L33320 14470
L33340 14420
L33360 14400
L33410 14370
L33530 14370
L33600 14400
" />
<path d="M33820 14870
L33820 14370
L34010 14370
L34050 14400
L34080 14420
L34100 14470
L34100 14540
L34080 14590
L34050 14610
L34010 14630
L33820 14630
" />
<path d="M34320 14680
L34700 14680
" />
<path d="M35200 14870
L34910 14870
" />
<path d="M35050 14870
L35050 14370
L35010 14440
L34960 14490
L34910 14510
" />
<path d="M35390 14420
L35410 14400
L35460 14370
L35580 14370
L35630 14400
L35650 14420
L35670 14470
L35670 14510
L35650 14590
L35360 14870
L35670 14870
" />
<path d="M35890 14610
L36050 14610
" />
<path d="M36130 14870
L35890 14870
L35890 14370
L36130 14370
" />
</g>
<g style="fill:#008484; fill-opacity:0.0; 
stroke:#008484; stroke-width:0; stroke-opacity:1; 
stroke-linecap:round; stroke-linejoin:round;">
</g>
<g style="fill:#840000; fill-opacity:0.0; 
stroke:#840000; stroke-width:0; stroke-opacity:1; 
stroke-linecap:round; stroke-linejoin:round;">
</g>
<g style="fill:#FFFFC2; fill-opacity:0.0; 
stroke:#FFFFC2; stroke-width:0; stroke-opacity:1; 
stroke-linecap:round; stroke-linejoin:round;">
</g>
<g style="fill:#FFFFC2; fill-opacity:0.6; 
stroke:#FFFFC2; stroke-width:0; stroke-opacity:1; 
stroke-linecap:round; stroke-linejoin:round;">
<rect x="50500" y="27500" width="2500" height="4000" rx="0" />
</g>
<g style="fill:#840000; fill-opacity:0.6; 
stroke:#840000; stroke-width:0; stroke-opacity:1; 
stroke-linecap:round; stroke-linejoin:round;">
</g>
<g style="fill:#840000; fill-opacity:0.0; 
stroke:#840000; stroke-width:60; stroke-opacity:1; 
stroke-linecap:round; stroke-linejoin:round;">
<rect x="50500" y="27500" width="2500" height="4000" rx="0" />
<path d="M50500 28000
L49500 28000
" />
</g>
<g style="fill:#008484; fill-opacity:0.0; 
stroke:#008484; stroke-width:60; stroke-opacity:1; 
stroke-linecap:round; stroke-linejoin:round;">
<path d="M50970 27720
L51140 28220
L51310 27720
" />
<path d="M51760 28170
L51730 28200
L51660 28220
L51620 28220
L51540 28200
L51500 28150
L51470 28100
L51450 28010
L51450 27940
L51470 27840
L51500 27790
L51540 27750
L51620 27720
L51660 27720
L51730 27750
L51760 27770
" />
<path d="M52260 28170
L52230 28200
L52160 28220
L52120 28220
L52040 28200
L52000 28150
L51970 28100
L51950 28010
L51950 27940
L51970 27840
L52000 27790
L52040 27750
L52120 27720
L52160 27720
L52230 27750
L52260 27770
" />
</g>
<g style="fill:#840000; fill-opacity:0.0; 
stroke:#840000; stroke-width:60; stroke-opacity:1; 
stroke-linecap:round; stroke-linejoin:round;">
<path d="M50140 27870
L49850 27870
" />
<path d="M50000 27870
L50000 27370
L49950 27440
L49900 27490
L49850 27510
" />
<path d="M50500 29500
L49500 29500
" />
</g>
<g style="fill:#008484; fill-opacity:0.0; 
stroke:#008484; stroke-width:60; stroke-opacity:1; 
stroke-linecap:round; stroke-linejoin:round;">
<path d="M51140 29220
L51230 29220
L51280 29250
L51330 29290
L51350 29390
L51350 29550
L51330 29650
L51280 29700
L51230 29720
L51140 29720
L51090 29700
L51040 29650
L51020 29550
L51020 29390
L51040 29290
L51090 29250
L51140 29220
" />
<path d="M51780 29390
L51780 29720
" />
<path d="M51570 29390
L51570 29650
L51590 29700
L51640 29720
L51710 29720
L51760 29700
L51780 29670
" />
<path d="M51950 29390
L52140 29390
" />
<path d="M52020 29220
L52020 29650
L52040 29700
L52090 29720
L52140 29720
" />
</g>
<g style="fill:#840000; fill-opacity:0.0; 
stroke:#840000; stroke-width:60; stroke-opacity:1; 
stroke-linecap:round; stroke-linejoin:round;">
<path d="M49850 28920
L49880 28900
L49920 28870
L50040 28870
L50090 28900
L50110 28920
L50140 28970
L50140 29010
L50110 29090
L49830 29370
L50140 29370
" />
<path d="M50500 31000
L49500 31000
" />
</g>
<g style="fill:#008484; fill-opacity:0.0; 
stroke:#008484; stroke-width:60; stroke-opacity:1; 
stroke-linecap:round; stroke-linejoin:round;">
<path d="M51310 30750
L51260 30720
L51190 30720
L51120 30750
L51070 30790
L51040 30840
L51020 30940
L51020 31010
L51040 31100
L51070 31150
L51120 31200
L51190 31220
L51230 31220
L51310 31200
L51330 31170
L51330 31010
L51230 31010
" />
<path d="M51540 31220
L51540 30720
L51830 31220
L51830 30720
" />
<path d="M52070 31220
L52070 30720
L52190 30720
L52260 30750
L52310 30790
L52330 30840
L52350 30940
L52350 31010
L52330 31100
L52310 31150
L52260 31200
L52190 31220
L52070 31220
" />
</g>
<g style="fill:#840000; fill-opacity:0.0; 
stroke:#840000; stroke-width:60; stroke-opacity:1; 
stroke-linecap:round; stroke-linejoin:round;">
<path d="M49830 30370
L50140 30370
L49970 30560
L50040 30560
L50090 30590
L50110 30610
L50140 30660
L50140 30780
L50110 30820
L50090 30850
L50040 30870
L49900 30870
L49850 30850
L49830 30820
" />
</g>
<g style="fill:#008484; fill-opacity:0.0; 
stroke:#008484; stroke-width:60; stroke-opacity:1; 
stroke-linecap:round; stroke-linejoin:round;">
<path d="M53430 29230
L53430 28730
L53620 28730
L53660 28760
L53690 28780
L53710 28830
L53710 28900
L53690 28950
L53660 28970
L53620 28990
L53430 28990
" />
<path d="M53930 29230
L53930 28730
" />
<path d="M54450 29230
L54280 28990
" />
<path d="M54160 29230
L54160 28730
L54350 28730
L54400 28760
L54430 28780
L54450 28830
L54450 28900
L54430 28950
L54400 28970
L54350 28990
L54160 28990
" />
<path d="M53420 30140
L53420 29640
" />
<path d="M53420 29880
L53710 29880
" />
<path d="M53710 30140
L53710 29640
" />
<path d="M54230 30090
L54210 30120
L54130 30140
L54090 30140
L54020 30120
L53970 30070
L53940 30020
L53920 29930
L53920 29860
L53940 29760
L53970 29710
L54020 29670
L54090 29640
L54130 29640
L54210 29670
L54230 29690
" />
<path d="M54440 29950
L54830 29950
" />
<path d="M55040 30120
L55110 30140
L55230 30140
L55280 30120
L55300 30090
L55330 30050
L55330 30000
L55300 29950
L55280 29930
L55230 29900
L55130 29880
L55090 29860
L55060 29830
L55040 29780
L55040 29740
L55060 29690
L55090 29670
L55130 29640
L55250 29640
L55330 29670
" />
<path d="M55830 30140
L55660 29900
" />
<path d="M55540 30140
L55540 29640
L55730 29640
L55780 29670
L55800 29690
L55830 29740
L55830 29810
L55800 29860
L55780 29880
L55730 29900
L55540 29900
" />
<path d="M56280 29640
L56040 29640
L56020 29880
L56040 29860
L56090 29830
L56210 29830
L56250 29860
L56280 29880
L56300 29930
L56300 30050
L56280 30090
L56250 30120
L56210 30140
L56090 30140
L56040 30120
L56020 30090
" />
<path d="M56610 29640
L56660 29640
L56710 29670
L56730 29690
L56750 29740
L56780 29830
L56780 29950
L56750 30050
L56730 30090
L56710 30120
L56660 30140
L56610 30140
L56560 30120
L56540 30090
L56520 30050
L56490 29950
L56490 29830
L56520 29740
L56540 29690
L56560 29670
L56610 29640
" />
<path d="M57250 30140
L56970 30140
" />
<path d="M57110 30140
L57110 29640
L57060 29710
L57020 29760
L56970 29780
" />
</g>
<g style="fill:#008400; fill-opacity:0.0; 
stroke:#008400; stroke-width:60; stroke-opacity:1; 
stroke-linecap:round; stroke-linejoin:round;">
<path d="M34500 30500
L34500 31000
" />
<path d="M34500 31000
L49500 31000
" />
<path d="M34500 15500
L43000 15500
" />
<path d="M43000 15500
L43000 28000
" />
<path d="M43000 28000
L49500 28000
" />
<path d="M40500 24500
L42000 24500
" />
<path d="M42000 24500
L42000 29500
" />
<path d="M42000 29500
L49500 29500
" />
</g> 
</svg>
